<svg width="1235" height="328" xmlns="http://www.w3.org/2000/svg" xmlns:xlink="http://www.w3.org/1999/xlink" overflow="hidden"><defs><clipPath id="clip0"><rect x="92" y="2771" width="1235" height="328"/></clipPath></defs><g clip-path="url(#clip0)" transform="translate(-92 -2771)"><path d="M316.5 2800.5C316.5 2793.87 323.007 2788.5 331.034 2788.5L539.966 2788.5C547.993 2788.5 554.5 2793.87 554.5 2800.5L554.5 2896.5C554.5 2903.13 547.993 2908.5 539.966 2908.5L331.034 2908.5C323.007 2908.5 316.5 2903.13 316.5 2896.5L316.5 2800.5Z" stroke="#FFFFFF" stroke-width="1.33333" stroke-miterlimit="8" fill="#02414A" fill-rule="evenodd"/><text fill="#FFFFFF" font-family="Calibri,Calibri_MSFontService,sans-serif" font-weight="700" font-size="32" transform="translate(371.295 2839)">Explosion <tspan font-size="32" x="14.1667" y="35">Models</tspan></text><path d="M577.006 2827.67 604.799 2827.47 604.706 2814.54 632.73 2846.66 605.167 2879.18 605.075 2866.25 577.282 2866.45 577.006 2827.67Z" stroke="#000000" stroke-linejoin="round" stroke-miterlimit="10" fill="#D1FAFB" fill-rule="evenodd"/><path d="M659.5 2800.1C659.5 2793.69 665.941 2788.5 673.887 2788.5L917.113 2788.5C925.059 2788.5 931.5 2793.69 931.5 2800.1L931.5 2892.9C931.5 2899.31 925.059 2904.5 917.113 2904.5L673.887 2904.5C665.941 2904.5 659.5 2899.31 659.5 2892.9L659.5 2800.1Z" stroke="#FFFFFF" stroke-width="1.33333" stroke-miterlimit="8" fill="#02414A" fill-rule="evenodd"/><text fill="#FFFFFF" font-family="Calibri,Calibri_MSFontService,sans-serif" font-weight="700" font-size="32" transform="translate(687.557 2837)">Nucleosynthesis <tspan font-size="32" x="68.5133" y="35">Yields</tspan></text><path d="M960.512 2949.97 998.89 2913.45 990.989 2905.15 1023.31 2913.95 1030.5 2946.66 1022.59 2938.36 984.216 2974.88 960.512 2949.97Z" fill="#E96E4D" fill-rule="evenodd"/><path d="M1025 2994.4C1025 2988.1 1031.76 2983 1040.1 2983L1310.9 2983C1319.24 2983 1326 2988.1 1326 2994.4L1326 3085.6C1326 3091.9 1319.24 3097 1310.9 3097L1040.1 3097C1031.76 3097 1025 3091.9 1025 3085.6L1025 2994.4Z" fill="#03F7EB" fill-rule="evenodd"/><text font-family="Calibri,Calibri_MSFontService,sans-serif" font-weight="700" font-size="32" transform="translate(1057.53 3049)">Abundance Yields</text><path d="M947.877 3020.71 975.223 3020.85 975.288 3007.92 1002.47 3040.38 974.964 3072.56 975.029 3059.63 947.682 3059.5 947.877 3020.71Z" stroke="#000000" stroke-linejoin="round" stroke-miterlimit="10" fill="#D1FAFB" fill-rule="evenodd"/><path d="M663 2991.9C663 2985.33 669.401 2980 677.297 2980L907.703 2980C915.599 2980 922 2985.33 922 2991.9L922 3087.1C922 3093.67 915.599 3099 907.703 3099L677.297 3099C669.401 3099 663 3093.67 663 3087.1L663 2991.9Z" fill="#03F7EB" fill-rule="evenodd"/><text font-family="Calibri,Calibri_MSFontService,sans-serif" font-weight="700" font-size="32" transform="translate(758.46 3031)">X<tspan font-size="32" x="17.6666" y="0">-</tspan><tspan font-size="32" x="27.5" y="0">ray </tspan><tspan font-size="32" x="-53.9467" y="35">Spectroscopy</tspan></text><path d="M590.28 3019.09 616.188 3019.24 616.263 3006.32 641.983 3038.79 615.888 3070.95 615.963 3058.03 590.056 3057.88 590.28 3019.09Z" stroke="#000000" stroke-linejoin="round" stroke-miterlimit="10" fill="#D1FAFB" fill-rule="evenodd"/><path d="M316 2990.8C316 2984.28 322.396 2979 330.286 2979L551.714 2979C559.604 2979 566 2984.28 566 2990.8L566 3085.2C566 3091.72 559.604 3097 551.714 3097L330.286 3097C322.396 3097 316 3091.72 316 3085.2L316 2990.8Z" fill="#03F7EB" fill-rule="evenodd"/><text font-family="Calibri,Calibri_MSFontService,sans-serif" font-weight="700" font-size="32" transform="translate(400.863 3029)">Ejecta <tspan font-size="32" x="-71.06" y="35">Dominated SNRs</tspan></text><path d="M1025.5 2787.4C1025.5 2779.17 1033.55 2772.5 1043.47 2772.5L1308.53 2772.5C1318.45 2772.5 1326.5 2779.17 1326.5 2787.4L1326.5 2906.6C1326.5 2914.83 1318.45 2921.5 1308.53 2921.5L1043.47 2921.5C1033.55 2921.5 1025.5 2914.83 1025.5 2906.6L1025.5 2787.4Z" stroke="#FFFFFF" stroke-width="1.33333" stroke-miterlimit="8" fill="#E96E4D" fill-rule="evenodd"/><text fill="#FFFFFF" font-family="Calibri,Calibri_MSFontService,sans-serif" font-weight="700" font-size="32" transform="translate(1066.81 2855)">Progenitor Mass</text><path d="M1020.15 2959.25 1020.68 3004.69 975.395 3001 990.94 2986.5 941.966 2934 926.421 2948.5 925.887 2903.06 971.176 2906.75 955.631 2921.25 1004.6 2973.75Z" stroke="#E96E4D" stroke-width="1.33333" stroke-miterlimit="8" fill="#E96E4D" fill-rule="evenodd"/><text font-family="Calibri,Calibri_MSFontService,sans-serif" font-weight="400" font-size="43" transform="translate(133.181 2853)">Theorists:<tspan font-size="43" x="-15.1829" y="196">Observers:</tspan></text><text font-family="Arial,Arial_MSFontService,sans-serif" font-weight="900" font-size="27" transform="matrix(0.709831 0.704372 -0.704372 0.709831 922.278 2916)">Compare</text></g></svg>